# Made in Blockbench 5.0.7
mtllib torch_wall_lit.mtl

o cube
v 0.2578125 0.825 0.5625
v 0.2578125 0.825 0.4375
v 0.1328125 0.825 0.5625
v 0.1328125 0.825 0.4375
v 0.25 1.2 1
v 0.25 1.2 0
v -0.0625 0.19999999999999996 1
v -0.0625 0.19999999999999996 0
v 0.375 1.2 1
v 0.375 1.2 0
v 0.0625 0.19999999999999996 1
v 0.0625 0.19999999999999996 0
v 0.8125 1.2 0.5625
v 0.5 0.19999999999999996 0.5625
v -0.1875 1.2 0.5625
v -0.5 0.19999999999999996 0.5625
v 0.8125 1.2 0.4375
v 0.5 0.19999999999999996 0.4375
v -0.1875 1.2 0.4375
v -0.5 0.19999999999999996 0.4375
vt 0.5625 0.5
vt 0.5625 0.625
vt 0.4375 0.625
vt 0.4375 0.5
vt 1 0
vt 1 1
vt 0 1
vt 0 0
vt 1 0
vt 1 1
vt 0 1
vt 0 0
vt 1 0
vt 1 1
vt 0 1
vt 0 0
vt 1 0
vt 1 1
vt 0 1
vt 0 0
vn 0 1 0
vn -0.9544799780350297 0.2982749931359468 0
vn 0.9544799780350297 -0.2982749931359468 0
vn 0 0 1
vn 0 0 -1
usemtl m_0dc65207-c8b5-f3ea-79df-9d0b7fac723c
f 1/1/1 2/2/1 4/3/1 3/4/1
f 7/5/2 5/6/2 6/7/2 8/8/2
f 12/9/3 10/10/3 9/11/3 11/12/3
f 14/13/4 13/14/4 15/15/4 16/16/4
f 20/17/5 19/18/5 17/19/5 18/20/5